<?xml version="1.0" encoding="UTF-8"?>
<svg version="1.1" xmlns="http://www.w3.org/2000/svg" width="512" height="512">
<path d="M0 0 C168.96 0 337.92 0 512 0 C512 168.96 512 337.92 512 512 C343.04 512 174.08 512 0 512 C0 343.04 0 174.08 0 0 Z " fill="#EBDBC5" transform="translate(0,0)"/>
<path d="M0 0 C21.12 0 42.24 0 64 0 C64 129.36 64 258.72 64 392 C39.25 392 14.5 392 -11 392 C-16.445 383.09 -16.445 383.09 -22 374 C-24.04534495 370.79745174 -26.09572266 367.60844922 -28.1875 364.4375 C-33.21428262 356.75918549 -38.18483561 349.04683022 -43.125 341.3125 C-47.56527627 334.36316171 -52.01109652 327.41804153 -56.5 320.5 C-61.73607704 312.42979872 -66.91607619 304.3240149 -72.09765625 296.21875 C-75.88197823 290.30170766 -79.67709502 284.39218382 -83.5 278.5 C-88.73460187 270.43198978 -93.91342078 262.32858492 -99.09326172 254.2253418 C-102.91930613 248.24265914 -106.75845054 242.26907619 -110.625 236.3125 C-115.40143331 228.95304082 -120.10932319 221.55083126 -124.81347656 214.14501953 C-128.73769755 207.97149766 -132.69289961 201.81938439 -136.67578125 195.68359375 C-140.81126182 189.30656284 -144.90638839 182.90396694 -149 176.5 C-153.48234399 169.48844515 -157.9705231 162.4812121 -162.5 155.5 C-167.02947729 148.5187873 -171.51757103 141.51150108 -176 134.5 C-180.7350093 127.09443206 -185.47540391 119.69262359 -190.25 112.3125 C-190.89388672 111.31669922 -190.89388672 111.31669922 -191.55078125 110.30078125 C-194.00446143 106.51375075 -196.48897398 102.74926132 -199 99 C-204.70742187 101.99864547 -209.98472198 104.9250866 -215 109 C-215.99 109 -216.98 109 -218 109 C-218 201.4 -218 293.8 -218 389 C-235.16 389 -252.32 389 -270 389 C-270 261.62 -270 134.24 -270 3 C-242.94 3 -215.88 3 -188 3 C-168.52157634 35.08210956 -168.52157634 35.08210956 -162.68475342 44.95715332 C-161.54609708 46.88348468 -160.40529792 48.80853609 -159.26416016 50.73339844 C-156.43791908 55.50152209 -153.61483811 60.27151419 -150.79174805 65.04150391 C-147.98787004 69.77868045 -145.18256193 74.51500577 -142.375 79.25 C-141.78262543 80.24912415 -141.78262543 80.24912415 -141.17828369 81.26843262 C-134.9961914 91.69006235 -128.73075747 102.05839251 -122.42456055 112.40527344 C-115.70593131 123.44003853 -109.11871674 134.551682 -102.53408813 145.66674805 C-102.14514374 146.32328369 -101.75619934 146.97981934 -101.35546875 147.65625 C-100.97305023 148.30182861 -100.59063171 148.94740723 -100.19662476 149.61254883 C-97.14999276 154.75311306 -94.08164036 159.88034189 -91 165 C-87.52746247 170.76907193 -84.07632782 176.55037347 -80.64453125 182.34375 C-80.25558685 183.00028564 -79.86664246 183.65682129 -79.46591187 184.33325195 C-79.0698172 185.00187256 -78.67372253 185.67049316 -78.265625 186.359375 C-70.72982524 199.079805 -63.13502765 211.75946169 -55.43725586 224.38256836 C-49.03471723 234.89384678 -42.75684315 245.4780858 -36.50585938 256.08007812 C-36.12798279 256.71940277 -35.7501062 257.35872742 -35.36077881 258.01742554 C-34.62299014 259.26581292 -33.88682791 260.51516316 -33.15240479 261.76553345 C-30.37483055 266.46298338 -27.37237081 270.97944034 -24.21923828 275.43530273 C-23 278 -23 278 -23 285 C-15.41 285 -7.82 285 0 285 C0 190.95 0 96.9 0 0 Z " fill="#FDFDFD" transform="translate(369,60)"/>
<path d="M0 0 C35.97 0 71.94 0 109 0 C109 144.21 109 288.42 109 437 C55.54 437.495 55.54 437.495 1 438 C-2.96 431.73 -6.92 425.46 -11 419 C-14.97162595 412.85221283 -14.97162595 412.85221283 -18.953125 406.7109375 C-22.6605788 400.99008181 -26.32856974 395.24401186 -30 389.5 C-34.48231411 382.48842481 -38.97063887 375.48128757 -43.5 368.5 C-51.42837768 356.27614538 -59.25513952 343.98685095 -67.10253906 331.7109375 C-73.9706282 320.96813079 -80.83873479 310.22593713 -87.77856445 299.52929688 C-92.58465134 292.1136306 -97.33789045 284.66419372 -102.09765625 277.21875 C-105.88197823 271.30170766 -109.67709502 265.39218382 -113.5 259.5 C-118.73603944 251.42977407 -123.91607597 243.32401525 -129.09765625 235.21875 C-132.88197919 229.30170616 -136.67727519 223.39230169 -140.5 217.5 C-145.04316148 210.49345861 -149.55751476 203.4686452 -154.0625 196.4375 C-154.69929688 195.44492188 -155.33609375 194.45234375 -155.9921875 193.4296875 C-161.39364453 184.99197356 -166.68916404 176.49733754 -172 168 C-172.33 255.45 -172.66 342.9 -173 433 C-205.01 433 -237.02 433 -270 433 C-270 290.77 -270 148.54 -270 2 C-230.4 2 -190.8 2 -150 2 C-149.01 5.465 -149.01 5.465 -148 9 C-146.96610985 11.05198176 -145.85629454 13.06703079 -144.68359375 15.04296875 C-144.35557266 15.60019119 -144.02755157 16.15741364 -143.68959045 16.73152161 C-142.61328631 18.55488509 -141.52563374 20.37117558 -140.4375 22.1875 C-139.67133601 23.47949824 -138.90572071 24.77182199 -138.140625 26.06445312 C-132.29745695 35.91480743 -126.34583346 45.69977507 -120.37866211 55.4753418 C-115.32523217 63.76313502 -110.38855787 72.11406167 -105.5 80.5 C-99.62522372 90.57597731 -93.64791427 100.58153704 -87.57226562 110.53759766 C-81.39863664 120.65675755 -75.33102398 130.83569177 -69.29455566 141.03717041 C-63.71730299 150.45956579 -58.07860579 159.8410996 -52.375 169.1875 C-46.28691562 179.16472277 -40.33196241 189.21242271 -34.44500732 199.30947876 C-27.76272997 210.76494971 -20.90955239 222.11007391 -14 233.4296875 C-9.63452452 240.60032203 -5.31917197 247.80138005 -1 255 C-0.67 170.85 -0.34 86.7 0 0 Z M23 22 C23 116.05 23 210.1 23 307 C15.41 307 7.82 307 0 307 C0 304.69 0 302.38 0 300 C-1.20532322 297.07193896 -1.20532322 297.07193896 -3.05078125 294.31640625 C-3.71980469 293.24068359 -4.38882813 292.16496094 -5.078125 291.05664062 C-5.44099609 290.48921143 -5.80386719 289.92178223 -6.17773438 289.3371582 C-7.74358443 286.88832773 -9.27482672 284.41844528 -10.80917358 281.94979858 C-11.62330767 280.64091501 -12.43927925 279.33317277 -13.25698853 278.02651978 C-17.38598378 271.42107542 -21.35573025 264.72505598 -25.31167603 258.01501465 C-31.67067018 247.23220908 -38.10414722 236.49810894 -44.625 225.8125 C-50.71653754 215.82961814 -56.67440453 205.77596536 -62.56506348 195.67340088 C-68.08702229 186.20795445 -73.71943617 176.81649212 -79.42773438 167.46240234 C-85.60136336 157.34324245 -91.66897602 147.16430823 -97.70544434 136.96282959 C-103.28269701 127.54043421 -108.92139421 118.1589004 -114.625 108.8125 C-120.349266 99.43150698 -125.96437195 89.99348837 -131.5 80.5 C-142.3879855 61.8283517 -153.671735 43.40843062 -165 25 C-192.06 25 -219.12 25 -247 25 C-247 152.38 -247 279.76 -247 411 C-229.84 411 -212.68 411 -195 411 C-195 318.6 -195 226.2 -195 131 C-193.02 130.505 -193.02 130.505 -191 130 C-189.2353042 129.07880407 -189.2353042 129.07880407 -187.546875 127.93359375 C-186.928125 127.53076172 -186.309375 127.12792969 -185.671875 126.71289062 C-185.03765625 126.29201172 -184.4034375 125.87113281 -183.75 125.4375 C-183.1003125 125.01275391 -182.450625 124.58800781 -181.78125 124.15039062 C-180.18421082 123.1052694 -178.5916558 122.05330163 -177 121 C-172.97681988 124.54601224 -170.56799609 128.74796987 -167.875 133.3125 C-164.43335113 139.04647646 -160.93773105 144.71254342 -157.1875 150.25 C-153.0369299 156.39069589 -149.03131012 162.61535949 -145.0625 168.875 C-140.94323352 175.37176307 -136.81444734 181.86073525 -132.625 188.3125 C-127.34765732 196.44200517 -122.12734659 204.60759243 -116.90722656 212.77392578 C-113.08099787 218.75683872 -109.24170918 224.73067775 -105.375 230.6875 C-100.59856669 238.04695918 -95.89067681 245.44916874 -91.18652344 252.85498047 C-87.26230245 259.02850234 -83.30710039 265.18061561 -79.32421875 271.31640625 C-75.18873818 277.69343716 -71.09361161 284.09603306 -67 290.5 C-62.51765601 297.51155485 -58.0294769 304.5187879 -53.5 311.5 C-48.26396056 319.57022593 -43.08392403 327.67598475 -37.90234375 335.78125 C-34.11802177 341.69829234 -30.32290498 347.60781618 -26.5 353.5 C-21.27114853 361.55914722 -16.09718853 369.65312945 -10.92431641 377.74829102 C-6.52158818 384.63459602 -2.10057659 391.50841577 2.375 398.34765625 C5.72612503 403.49480907 8.83213948 408.72023247 12 414 C36.75 414 61.5 414 87 414 C87 284.64 87 155.28 87 22 C65.88 22 44.76 22 23 22 Z " fill="#030303" transform="translate(346,38)"/>
</svg>
