<svg xmlns="http://www.w3.org/2000/svg" width="150" height="150" viewBox="0 0 150 150" version="1.1"><path d="M 26.951 10.362 C 21.003 11.966, 16.053 15.092, 11.527 20.102 C 5.685 26.568, 3.663 32.139, 3.575 42 C 3.509 49.509, 3.843 51.177, 6.443 56.308 C 9.211 61.771, 15.795 69, 18.003 69 C 18.551 69, 19.890 68.110, 20.977 67.023 C 23.295 64.705, 22.847 62.764, 19.012 58.500 C 13.680 52.571, 11.666 48.077, 11.671 42.112 C 11.676 35.036, 14.473 28.548, 19.370 24.248 C 26.584 17.914, 25.829 18, 74.422 18 C 107.449 18, 118.903 18.303, 119.800 19.200 C 120.688 20.088, 121 29.578, 121 55.700 C 121 83.270, 121.274 91.001, 122.250 91.006 C 122.938 91.010, 124.737 91.658, 126.250 92.447 L 129 93.881 129 55.576 C 129 17.795, 128.970 17.232, 126.832 14.514 C 122.555 9.076, 121.773 8.994, 74.782 9.067 C 43.920 9.116, 30.195 9.487, 26.951 10.362 M 23 38.500 C 23 42.333, 23.296 43, 25 43 C 26.967 43, 27 43.667, 27 83.134 C 27 110.700, 27.363 124.481, 28.161 127.142 C 29.846 132.766, 35.216 138.532, 40.761 140.671 C 45.053 142.328, 49.081 142.500, 83.500 142.500 C 117.499 142.500, 121.830 142.320, 124.630 140.786 C 134.146 135.577, 138.422 128.827, 138.433 119 C 138.441 111.508, 136.405 106.472, 131.306 101.372 C 125.263 95.330, 121.735 94.889, 82.027 95.213 L 46.821 95.500 44.911 97.861 C 43.413 99.712, 43 101.828, 43 107.656 C 43 114.217, 43.289 115.380, 45.455 117.545 C 47.252 119.343, 48.993 120, 51.955 120 L 56 120 56 116 C 56 112.667, 55.667 112, 54 112 C 52.296 112, 52 111.333, 52 107.500 C 52 102.468, 52.837 102.051, 58.282 104.371 C 62.838 106.312, 65.682 109.774, 67.109 115.115 C 68.243 119.356, 68.147 120.125, 65.921 124.613 C 62.701 131.109, 58.259 134, 51.500 134 C 45.339 134, 40.687 131.330, 37.554 125.997 C 35.581 122.638, 35.489 120.817, 35.234 80 C 34.974 38.242, 34.932 37.469, 32.874 35.750 C 31.667 34.742, 29.128 34, 26.889 34 L 23 34 23 38.500 M 49.190 39.750 L 49.500 43.500 74 43.777 C 97.919 44.048, 98.541 44.005, 100.235 41.935 C 101.547 40.332, 101.722 39.349, 100.950 37.907 C 99.987 36.107, 98.492 36, 74.404 36 L 48.879 36 49.190 39.750 M 77.250 54.766 L 49 55.031 49 58.516 L 49 62 78.981 62 L 108.962 62 109.575 59.557 C 110.302 56.660, 109.669 55.375, 107.266 54.871 C 106.295 54.667, 92.787 54.620, 77.250 54.766 M 49.667 73.667 C 49.300 74.033, 49 75.833, 49 77.667 L 49 81 74.465 81 C 98.195 81, 99.997 80.874, 100.917 79.155 C 101.628 77.826, 101.482 76.705, 100.396 75.155 C 98.921 73.049, 98.334 73, 74.610 73 C 61.258 73, 50.033 73.300, 49.667 73.667 M 71 103.540 C 71 103.837, 71.988 105.974, 73.196 108.290 C 76.927 115.442, 76.298 123.384, 71.219 133.250 C 71.007 133.662, 81.783 133.998, 95.167 133.996 C 117.684 133.993, 119.743 133.844, 122.759 132.005 C 128.067 128.769, 130.172 124.467, 129.741 117.739 C 129.423 112.799, 128.888 111.479, 125.980 108.479 C 124.115 106.555, 120.994 104.537, 119.044 103.996 C 115.413 102.987, 71 102.566, 71 103.540" stroke="none" fill="#220c09" fill-rule="evenodd"/><path d="M 25.524 20.063 C 14.837 25.394, 9.335 37.116, 12.301 48.236 L 13.031 50.972 16.632 46.986 C 18.612 44.794, 20.855 43, 21.616 43 C 22.590 43, 23 41.665, 23 38.500 L 23 34 26.889 34 C 29.128 34, 31.667 34.742, 32.874 35.750 C 34.932 37.469, 34.974 38.242, 35.234 80 C 35.489 120.817, 35.581 122.638, 37.554 125.997 C 40.687 131.330, 45.339 134, 51.500 134 C 58.259 134, 62.701 131.109, 65.921 124.613 C 68.145 120.127, 68.242 119.354, 67.112 115.115 C 66.435 112.577, 64.709 109.273, 63.276 107.773 C 60.524 104.893, 54.829 102.497, 52.741 103.341 C 52.003 103.639, 52.201 103.874, 53.231 103.921 C 55.441 104.022, 56.641 108.523, 54.989 110.513 C 54.132 111.546, 54.098 112, 54.878 112 C 55.520 112, 56 113.709, 56 116 L 56 120 51.955 120 C 48.993 120, 47.252 119.343, 45.455 117.545 C 43.289 115.380, 43 114.217, 43 107.656 C 43 101.828, 43.413 99.712, 44.911 97.861 L 46.821 95.500 81.661 95.203 C 104.913 95.005, 117.984 95.277, 120.964 96.021 C 124.839 96.989, 125.592 96.910, 126.682 95.421 C 128.298 93.211, 127.678 92.308, 123.989 91.497 L 121 90.841 121 55.621 C 121 29.560, 120.688 20.088, 119.800 19.200 C 118.901 18.301, 107.412 18.010, 74.050 18.040 C 31.671 18.078, 29.306 18.176, 25.524 20.063 M 49.190 39.750 L 49.500 43.500 74 43.777 C 97.919 44.048, 98.541 44.005, 100.235 41.935 C 101.547 40.332, 101.722 39.349, 100.950 37.907 C 99.987 36.107, 98.492 36, 74.404 36 L 48.879 36 49.190 39.750 M 77.250 54.766 L 49 55.031 49 58.516 L 49 62 78.981 62 L 108.962 62 109.575 59.557 C 110.302 56.660, 109.669 55.375, 107.266 54.871 C 106.295 54.667, 92.787 54.620, 77.250 54.766 M 49.667 73.667 C 49.300 74.033, 49 75.833, 49 77.667 L 49 81 74.465 81 C 98.195 81, 99.997 80.874, 100.917 79.155 C 101.628 77.826, 101.482 76.705, 100.396 75.155 C 98.921 73.049, 98.334 73, 74.610 73 C 61.258 73, 50.033 73.300, 49.667 73.667 M 71 103.540 C 71 103.837, 71.988 105.974, 73.196 108.290 C 76.927 115.442, 76.298 123.384, 71.219 133.250 C 71.007 133.662, 81.783 133.998, 95.167 133.996 C 117.684 133.993, 119.743 133.844, 122.759 132.005 C 128.067 128.769, 130.172 124.467, 129.741 117.739 C 129.423 112.799, 128.888 111.479, 125.980 108.479 C 124.115 106.555, 120.994 104.537, 119.044 103.996 C 115.413 102.987, 71 102.566, 71 103.540" stroke="none" fill="#efdbc3" fill-rule="evenodd"/></svg>