<svg xmlns="http://www.w3.org/2000/svg" version="1.1" xmlns:xlink="http://www.w3.org/1999/xlink" xmlns:svgjs="http://svgjs.com/svgjs" width="220px" height="200px"><svg xmlns="http://www.w3.org/2000/svg" version="1.1" width="220px" height="200px" style="shape-rendering:geometricPrecision; text-rendering:geometricPrecision; image-rendering:optimizeQuality; fill-rule:evenodd; clip-rule:evenodd" xmlns:xlink="http://www.w3.org/1999/xlink">
<g><path style="opacity:0.999" fill="#fcecd8" d="M 189.5,123.5 C 187.73,124.764 186.063,126.264 184.5,128C 185.056,128.383 185.389,128.883 185.5,129.5C 183.518,129.005 181.518,128.505 179.5,128C 144.167,127.333 108.833,127.333 73.5,128C 70.2441,129.587 68.0774,132.087 67,135.5C 66.3333,141.833 66.3333,148.167 67,154.5C 70.2066,162.355 76.0399,165.355 84.5,163.5C 85.4834,159.702 85.8168,155.702 85.5,151.5C 83.1667,151.5 80.8333,151.5 78.5,151.5C 78.5,147.167 78.5,142.833 78.5,138.5C 93.6647,138.664 101.665,146.331 102.5,161.5C 102.069,171.865 97.0687,179.032 87.5,183C 73.6003,186.798 63.4337,182.298 57,169.5C 55.6886,127.546 55.022,85.5461 55,43.5C 53.7494,40.6193 51.5827,38.786 48.5,38C 44.8484,37.5014 41.1817,37.3347 37.5,37.5C 36.6618,37.8417 36.3284,38.5084 36.5,39.5C 31.9532,37.9905 27.2866,36.9905 22.5,36.5C 27.5525,24.3015 36.5525,16.8015 49.5,14C 92.1667,13.3333 134.833,13.3333 177.5,14C 178.333,14.8333 179.167,15.6667 180,16.5C 180.5,51.1651 180.667,85.8317 180.5,120.5C 183.785,120.928 186.785,121.928 189.5,123.5 Z"></path></g>
<g><path style="opacity:1" fill="#1c0a06" d="M 191.5,15.5 C 191.832,51.6705 191.498,87.6705 190.5,123.5C 190.167,123.5 189.833,123.5 189.5,123.5C 186.785,121.928 183.785,120.928 180.5,120.5C 180.667,85.8317 180.5,51.1651 180,16.5C 179.167,15.6667 178.333,14.8333 177.5,14C 134.833,13.3333 92.1667,13.3333 49.5,14C 36.5525,16.8015 27.5525,24.3015 22.5,36.5C 17.6658,53.1652 21.8325,67.1652 35,78.5C 36.8719,83.6924 35.2052,86.6924 30,87.5C 15.8962,78.9787 8.72955,66.3121 8.5,49.5C 9.95103,23.0863 23.6177,7.25294 49.5,2C 92.8333,1.33333 136.167,1.33333 179.5,2C 186.195,4.19057 190.195,8.69057 191.5,15.5 Z"></path></g>
<g><path style="opacity:0.951" fill="#352414" d="M 191.5,15.5 C 192.83,51.6689 192.83,88.0022 191.5,124.5C 190.893,124.376 190.56,124.043 190.5,123.5C 191.498,87.6705 191.832,51.6705 191.5,15.5 Z"></path></g>
<g><path style="opacity:1" fill="#534135" d="M 148.5,40.5 C 124.5,40.5 100.5,40.5 76.5,40.5C 76.5,44.1667 76.5,47.8333 76.5,51.5C 75.5166,47.7016 75.1832,43.7016 75.5,39.5C 100.006,39.169 124.339,39.5024 148.5,40.5 Z"></path></g>
<g><path style="opacity:1" fill="#190602" d="M 148.5,40.5 C 152.571,42.4353 153.404,45.4353 151,49.5C 150.25,50.1258 149.416,50.6258 148.5,51C 124.502,51.5 100.502,51.6666 76.5,51.5C 76.5,47.8333 76.5,44.1667 76.5,40.5C 100.5,40.5 124.5,40.5 148.5,40.5 Z"></path></g>
<g><path style="opacity:1" fill="#190600" d="M 76.5,67.5 C 104.835,67.3334 133.169,67.5 161.5,68C 164.29,70.2103 165.123,73.0437 164,76.5C 163.184,77.8228 162.017,78.4894 160.5,78.5C 132.5,78.5 104.5,78.5 76.5,78.5C 76.5,74.8333 76.5,71.1667 76.5,67.5 Z"></path></g>
<g><path style="opacity:1" fill="#6c5952" d="M 76.5,67.5 C 76.5,71.1667 76.5,74.8333 76.5,78.5C 104.5,78.5 132.5,78.5 160.5,78.5C 132.338,79.498 104.005,79.8313 75.5,79.5C 75.1832,75.2984 75.5166,71.2984 76.5,67.5 Z"></path></g>
<g><path style="opacity:0.668" fill="#4e3c32" d="M 37.5,37.5 C 37.335,40.8499 37.5017,44.1832 38,47.5C 40.0408,48.4231 42.2075,48.7564 44.5,48.5C 44.5,88.1667 44.5,127.833 44.5,167.5C 43.5014,128.337 43.1681,89.0035 43.5,49.5C 41.1667,49.5 38.8333,49.5 36.5,49.5C 36.5,46.1667 36.5,42.8333 36.5,39.5C 36.3284,38.5084 36.6618,37.8417 37.5,37.5 Z"></path></g>
<g><path style="opacity:1" fill="#190702" d="M 75.5,95.5 C 100.502,95.3334 125.502,95.5 150.5,96C 153.269,99.6068 152.936,102.94 149.5,106C 124.836,106.5 100.169,106.667 75.5,106.5C 75.5,102.833 75.5,99.1667 75.5,95.5 Z"></path></g>
<g><path style="opacity:1" fill="#1b0804" d="M 37.5,37.5 C 41.1817,37.3347 44.8484,37.5014 48.5,38C 51.5827,38.786 53.7494,40.6193 55,43.5C 55.022,85.5461 55.6886,127.546 57,169.5C 63.4337,182.298 73.6003,186.798 87.5,183C 97.0687,179.032 102.069,171.865 102.5,161.5C 101.665,146.331 93.6647,138.664 78.5,138.5C 78.5,142.833 78.5,147.167 78.5,151.5C 80.2646,152.461 82.2646,152.795 84.5,152.5C 84.5,156.167 84.5,159.833 84.5,163.5C 76.0399,165.355 70.2066,162.355 67,154.5C 66.3333,148.167 66.3333,141.833 67,135.5C 68.0774,132.087 70.2441,129.587 73.5,128C 108.833,127.333 144.167,127.333 179.5,128C 181.518,128.505 183.518,129.005 185.5,129.5C 204.86,140.402 210.693,156.402 203,177.5C 198.23,186.269 191.064,192.102 181.5,195C 166.877,196.124 152.21,196.624 137.5,196.5C 114.491,196.41 91.4908,195.91 68.5,195C 54.2426,191.245 46.2426,182.079 44.5,167.5C 44.5,127.833 44.5,88.1667 44.5,48.5C 42.2075,48.7564 40.0408,48.4231 38,47.5C 37.5017,44.1832 37.335,40.8499 37.5,37.5 Z"></path></g>
<g><path style="opacity:1" fill="#d5b28e" d="M 191.5,172.5 C 191.269,168.008 191.936,163.675 193.5,159.5C 192.522,157.223 191.855,154.89 191.5,152.5C 190.127,152.657 188.793,152.49 187.5,152C 185.028,148.695 182.695,145.362 180.5,142C 157.502,141.5 134.502,141.333 111.5,141.5C 111.5,143.167 111.5,144.833 111.5,146.5C 109.981,143.979 108.314,141.479 106.5,139C 129.5,138.333 152.5,138.333 175.5,139C 192.878,144.585 198.211,155.752 191.5,172.5 Z"></path></g>
<g><path style="opacity:1" fill="#eac18d" d="M 191.5,172.5 C 191.573,174.027 190.906,175.027 189.5,175.5C 184.98,177.82 180.314,179.986 175.5,182C 154.169,182.5 132.836,182.667 111.5,182.5C 111.5,180.5 111.5,178.5 111.5,176.5C 115.498,166.513 115.498,156.513 111.5,146.5C 111.5,144.833 111.5,143.167 111.5,141.5C 134.502,141.333 157.502,141.5 180.5,142C 182.695,145.362 185.028,148.695 187.5,152C 188.793,152.49 190.127,152.657 191.5,152.5C 191.855,154.89 192.522,157.223 193.5,159.5C 191.936,163.675 191.269,168.008 191.5,172.5 Z"></path></g>
<g><path style="opacity:1" fill="#645245" d="M 78.5,151.5 C 80.8333,151.5 83.1667,151.5 85.5,151.5C 85.8168,155.702 85.4834,159.702 84.5,163.5C 84.5,159.833 84.5,156.167 84.5,152.5C 82.2646,152.795 80.2646,152.461 78.5,151.5 Z"></path></g>
<g><path style="opacity:1" fill="#ddbb9a" d="M 189.5,175.5 C 186.289,180.611 181.623,183.444 175.5,184C 152.493,184.833 129.493,184.666 106.5,183.5C 108.434,181.276 110.101,178.942 111.5,176.5C 111.5,178.5 111.5,180.5 111.5,182.5C 132.836,182.667 154.169,182.5 175.5,182C 180.314,179.986 184.98,177.82 189.5,175.5 Z"></path></g>
</svg><style>@media (prefers-color-scheme: light) { :root { filter: none; } }
</style></svg>